{"title":"47 Ronin (2013) WEBRIP x264 AC3 - TiTAN","uid":9764387,"size":1286102725,"categoryP":"video","categoryS":"movies","magnet":"?xt=urn:btih:1229e928f8f7ffe96ee52e0f6ebc484eccbb2f11&amp;dn=47+Ronin+%282013%29+WEBRIP+x264+AC3+-+TiTAN&amp;tr=udp%3A%2F%2Ftracker.openbittorrent.com%3A80&amp;tr=udp%3A%2F%2Fopen.demonii.com%3A1337&amp;tr=udp%3A%2F%2Ftracker.coppersurfer.tk%3A6969&amp;tr=udp%3A%2F%2Fexodus.desync.com%3A6969","seeders":3,"leechers":0,"uploader":"tykoon123","files":-1,"time":1394860646,"description":" &lt;a href=&quot;http://www.imageurlhost.com/images/gglpafycn19aavfayf9g.jpg&quot; rel=&quot;nofollow&quot; target=&quot;_NEW&quot;&gt;http://www.imageurlhost.com/images/gglpafycn19aavfayf9g.jpg&lt;/a&gt;\n\nSource 720p Webrip\n\nHad this for awhile.. was holding since retail is few days away.. \nbut since others dropped this i figured i might aswell also.. \npretty good copy, does have HC subs.. Enjoy or wait for retail.\n\nGeneral\n\nFormat : Matroska\nFormat version : Version 2\nFile size : 1.20 GiB\nDuration : 1h 54mn\nOverall bit rate : 1 494 Kbps\nEncoded date : UTC 2014-03-15 12:26:33\nWriting application : mkvmerge v6.8.0 ('Theme for Great Cities') 32bit built on Mar 2 2014 21:27:07\nWriting library : libebml v1.3.0 + libmatroska v1.4.1\n\nVideo\nID : 1\nFormat : AVC\nFormat/Info : Advanced Video Codec\nFormat profile : &lt;a class=&quot;__cf_email__&quot; href=&quot;/cdn-cgi/l/email-protection&quot; data-cfemail=&quot;753d1c121d3539465b45&quot;&gt;[email&amp;#160;protected]&lt;/a&gt;&lt;script cf-hash='f9e31' type=&quot;text/javascript&quot;&gt;\n/* &lt;![CDATA[ */!function(){try{var t=&quot;currentScript&quot;in document?document.currentScript:function(){for(var t=document.getElementsByTagName(&quot;script&quot;),e=t.length;e--;)if(t[e].getAttribute(&quot;cf-hash&quot;))return t[e]}();if(t&amp;&amp;t.previousSibling){var e,r,n,i,c=t.previousSibling,a=c.getAttribute(&quot;data-cfemail&quot;);if(a){for(e=&quot;&quot;,r=parseInt(a.substr(0,2),16),n=2;a.length-n;n+=2)i=parseInt(a.substr(n,2),16)^r,e+=String.fromCharCode(i);e=document.createTextNode(e),c.parentNode.replaceChild(e,c)}}}catch(u){}}();/* ]]&gt; */&lt;/script&gt;\nFormat settings, CABAC : Yes\nFormat settings, ReFrames : 4 frames\nCodec ID : V_MPEG4/ISO/AVC\nDuration : 1h 54mn\nBit rate : 1 301 Kbps\nWidth : 720 pixels\nHeight : 400 pixels\nDisplay aspect ratio : 16:9\nFrame rate mode : Constant\nFrame rate : 23.976 fps\nColor space : YUV\nChroma subsampling : 4:2:0\nBit depth : 8 bits\nScan type : Progressive\nBits/(Pixel*Frame) : 0.188\nStream size : 1.02 GiB (85%)\nWriting library : x264 core 140 r2377 1ca7bb9\nDefault : Yes\nForced : No\n\nAudio\nID : 2\nFormat : AC-3\nFormat/Info : Audio Coding 3\nMode extension : CM (complete main)\nFormat settings, Endianness : Big\nCodec ID : A_AC3\nDuration : 1h 54mn\nBit rate mode : Constant\nBit rate : 192 Kbps\nChannel(s) : 2 channels\nChannel positions : Front: L R\nSampling rate : 44.1 KHz\nBit depth : 16 bits\nCompression mode : Lossy\nStream size : 158 MiB (13%)\nDefault : Yes\nForced : No\n\nScreens: &lt;a href=&quot;\nhttp://www.imageurlhost.com/images/fhfflpokqqv0p5t02fv.png&quot; rel=&quot;nofollow&quot; target=&quot;_NEW&quot;&gt;\nhttp://www.imageurlhost.com/images/fhfflpokqqv0p5t02fv.png&lt;/a&gt; &lt;a href=&quot;\nhttp://www.imageurlhost.com/images/0xve0tbadjg0utg2rzzc.png&quot; rel=&quot;nofollow&quot; target=&quot;_NEW&quot;&gt;\nhttp://www.imageurlhost.com/images/0xve0tbadjg0utg2rzzc.png&lt;/a&gt; &lt;a href=&quot;\nhttp://www.imageurlhost.com/images/bst8rcs2zfn2nma6ladr.png&quot; rel=&quot;nofollow&quot; target=&quot;_NEW&quot;&gt;\nhttp://www.imageurlhost.com/images/bst8rcs2zfn2nma6ladr.png&lt;/a&gt; &lt;a href=&quot;\nhttp://www.imageurlhost.com/images/gn26164jgsmrhvptyo9w.png&quot; rel=&quot;nofollow&quot; target=&quot;_NEW&quot;&gt;\nhttp://www.imageurlhost.com/images/gn26164jgsmrhvptyo9w.png&lt;/a&gt; &lt;a href=&quot;\nhttp://www.imageurlhost.com/images/t9lbchdyqxktl5t9c5s2.png&quot; rel=&quot;nofollow&quot; target=&quot;_NEW&quot;&gt;\nhttp://www.imageurlhost.com/images/t9lbchdyqxktl5t9c5s2.png&lt;/a&gt;\n\n\n\n\n\n","torrent":{"xt":"urn:btih:1229e928f8f7ffe96ee52e0f6ebc484eccbb2f11","amp;dn":"47+Ronin+%282013%29+WEBRIP+x264+AC3+-+TiTAN","amp;tr":["udp%3A%2F%2Ftracker.openbittorrent.com%3A80","udp%3A%2F%2Fopen.demonii.com%3A1337","udp%3A%2F%2Ftracker.coppersurfer.tk%3A6969","udp%3A%2F%2Fexodus.desync.com%3A6969"],"infoHash":"1229e928f8f7ffe96ee52e0f6ebc484eccbb2f11","infoHashBuffer":{"type":"Buffer","data":[18,41,233,40,248,247,255,233,110,229,46,15,110,188,72,78,204,187,47,17]},"announce":[],"urlList":[]}}